<?xml version="1.0" standalone="no"?>
<!DOCTYPE svg PUBLIC "-//W3C//DTD SVG 20010904//EN"
 "http://www.w3.org/TR/2001/REC-SVG-20010904/DTD/svg10.dtd">
<svg version="1.0" xmlns="http://www.w3.org/2000/svg"
 width="512.000000pt" height="512.000000pt" viewBox="0 0 512.000000 512.000000"
 preserveAspectRatio="xMidYMid meet">
<metadata>
Created by potrace 1.14, written by Peter Selinger 2001-2017
</metadata>
<g transform="translate(0.000000,512.000000) scale(0.100000,-0.100000)"
fill="#000000" stroke="none">
<path d="M755 4860 c-225 -26 -411 -186 -482 -415 -17 -57 -18 -141 -18 -1880
0 -1735 1 -1823 18 -1885 28 -97 75 -177 147 -251 77 -78 148 -120 250 -148
73 -21 92 -21 1242 -21 803 0 1184 3 1220 11 29 6 90 28 135 50 191 91 312
288 313 507 l0 72 -986 0 c-720 0 -997 3 -1025 12 -52 15 -113 68 -138 121
-21 43 -21 53 -21 824 0 836 -1 810 50 876 12 15 43 39 68 55 l47 27 1003 3
1002 2 0 203 c0 229 -7 267 -66 335 -19 23 -60 53 -92 69 l-57 28 -550 5
c-611 6 -584 2 -622 73 -17 29 -18 76 -20 564 -1 344 -6 546 -13 572 -25 93
-120 174 -225 191 -68 11 -1085 11 -1180 0z"/>
<path d="M2430 4347 c0 -571 0 -569 62 -606 18 -11 50 -23 73 -26 22 -3 259
-5 528 -3 l487 3 -575 575 -575 575 0 -518z"/>
<path d="M1722 2540 c-63 -39 -62 -28 -62 -682 0 -654 -2 -635 63 -682 l28
-21 1507 0 c1471 0 1508 0 1539 19 67 41 64 15 61 698 l-3 618 -33 32 -32 33
-1518 3 c-1508 2 -1517 2 -1550 -18z m890 -242 c94 -20 197 -104 233 -191 20
-49 19 -79 -6 -111 -18 -23 -28 -27 -62 -24 -39 3 -44 7 -91 78 -66 97 -111
123 -207 118 -156 -8 -237 -134 -227 -352 9 -183 89 -278 233 -278 105 0 161
39 215 150 36 75 66 92 117 68 107 -51 0 -272 -162 -337 -86 -33 -253 -33
-340 1 -109 42 -205 164 -235 296 -26 114 -9 288 37 379 87 171 280 250 495
203z m905 -17 c63 -28 128 -95 142 -146 19 -71 -31 -137 -93 -121 -18 4 -39
27 -67 71 -50 79 -77 95 -164 95 -98 0 -155 -38 -155 -103 0 -52 44 -80 192
-121 179 -49 249 -84 290 -144 31 -45 33 -52 33 -137 0 -80 -3 -95 -28 -137
-31 -53 -88 -97 -162 -124 -73 -27 -251 -25 -321 3 -70 27 -120 67 -151 120
-37 63 -47 117 -28 152 16 32 33 41 74 41 33 0 50 -17 84 -86 37 -74 84 -111
150 -119 136 -17 243 72 203 169 -20 48 -59 70 -187 101 -218 54 -301 119
-316 244 -13 112 53 205 178 252 78 28 251 23 326 -10z m389 21 c22 -14 46
-75 151 -385 58 -171 107 -313 108 -315 2 -2 53 148 115 334 63 189 121 345
131 355 47 47 139 8 139 -58 0 -36 -258 -745 -286 -789 -52 -79 -170 -69 -214
17 -33 63 -272 720 -277 761 -7 50 29 88 84 88 21 0 43 -4 49 -8z"/>
</g>
</svg>
